<svg id="Layer_1" data-name="Layer 1" xmlns="http://www.w3.org/2000/svg" viewBox="0 0 494.13 117.6"><defs><style>.cls-1{fill:#010101;}.cls-2{font-size:27.01px;fill:#1d1d1b;font-family:AlegreyaSans-Medium, Alegreya Sans;}.cls-3{letter-spacing:-0.02em;}.cls-4{letter-spacing:-0.01em;}.cls-5{letter-spacing:0em;}.cls-6{letter-spacing:-0.01em;}.cls-7{letter-spacing:-0.01em;}.cls-8{letter-spacing:-0.01em;}.cls-9{letter-spacing:-0.01em;}.cls-10{letter-spacing:-0.07em;}.cls-11{letter-spacing:-0.02em;}.cls-12{letter-spacing:-0.01em;}.cls-13{letter-spacing:0em;}.cls-14{letter-spacing:-0.01em;}.cls-15{letter-spacing:-0.02em;}.cls-16{letter-spacing:-0.01em;}.cls-17{letter-spacing:0em;}.cls-18{letter-spacing:-0.02em;}</style></defs><title>Standard hok ext</title><path class="cls-1" d="M82.75,78.87a29,29,0,0,0-2.46,2.74c-1.85,2.23-3.39,4.69-5.12,7a12.34,12.34,0,0,1-2.28,2.5,2.56,2.56,0,0,1-2.92.37,2.46,2.46,0,0,1-.92-2.75,23.78,23.78,0,0,1,2.06-5.35A229.48,229.48,0,0,1,84.4,59.28,107.57,107.57,0,0,1,95.65,44.84a48.24,48.24,0,0,1,7.75-7.16,13.2,13.2,0,0,1,5-2.38c.5-.1.35-.32.22-.59A35.42,35.42,0,0,0,93.22,17a47.43,47.43,0,0,0-17.06-5.79,52.79,52.79,0,0,0-10.11-.57A56.29,56.29,0,0,0,32,23.14,55.6,55.6,0,0,0,18.13,40.06a63.25,63.25,0,0,0-6.06,15.63,57.08,57.08,0,0,0-1.46,9.46,61.11,61.11,0,0,0-.08,7.77,50.61,50.61,0,0,0,1.81,11c0,.1.07.17.15.42,1.56-4,3.39-7.78,5.17-11.64a4.84,4.84,0,0,0-1.21.32,6.25,6.25,0,0,1-2.06.37,1.73,1.73,0,0,1-1.7-1.28,3.07,3.07,0,0,1,1.51-3.79,39.45,39.45,0,0,1,6.63-2.55,1.71,1.71,0,0,0,1-.77Q28.44,53.73,35.1,42.54A101.36,101.36,0,0,0,40.27,33a5.38,5.38,0,0,1,1-1.56,3.27,3.27,0,0,1,3.12-1.14,2.57,2.57,0,0,1,2.23,3.19,20.73,20.73,0,0,1-2.2,5.62C41.64,44.54,38.19,49.62,35,54.82q-2.37,3.9-4.63,7.82a3,3,0,0,0-.15.33l3.45-.92c4.85-1.31,9.7-2.6,14.63-3.67a1.5,1.5,0,0,0,1-.71Q56.61,46.38,64,35.13A4.45,4.45,0,0,1,66.43,33a2.69,2.69,0,0,1,3.39,2.4,4.92,4.92,0,0,1-.52,2.38,50.92,50.92,0,0,1-3.77,6.32c-2.77,4.16-5.54,8.29-8.32,12.45-.1.15-.32.3-.22.47s.37.13.57.13a17.35,17.35,0,0,1,3.14.24,1.83,1.83,0,0,1,1.54,2.23c-.3,1.91-1.51,2.93-3.67,3.05-1.53.1-3.07.27-4.63.37-.37,0-.52.27-.66.55a155.15,155.15,0,0,0-7.9,14.71,108.79,108.79,0,0,0-5.23,13.94,8,8,0,0,1-.87,2.1,1.73,1.73,0,0,1-2.35.72,5.91,5.91,0,0,1-2.65-2.25A3.49,3.49,0,0,1,34,90.18a37,37,0,0,1,2.82-8.37c2.53-5.52,5.33-10.89,8-16.34a1.21,1.21,0,0,0,.22-.72l-3.27.89q-7.47,2.11-14.93,4.21a1.23,1.23,0,0,0-.85.65,109.67,109.67,0,0,0-8.19,18.32A38.5,38.5,0,0,0,16.65,93a2.06,2.06,0,0,0,.27,1.63,43.4,43.4,0,0,0,17.34,17.14,58.32,58.32,0,0,0,19.56,6.46,62.91,62.91,0,0,0,11.22.65,60.71,60.71,0,0,0,25.28-6.17A55.58,55.58,0,0,0,114.2,90a17.77,17.77,0,0,1,2-3.39,4.34,4.34,0,0,1,1.44-1.07,2,2,0,0,1,2.92,1.81,4.37,4.37,0,0,1-.44,2.16,55.61,55.61,0,0,1-19.62,23,62.94,62.94,0,0,1-20.45,9.26,68,68,0,0,1-10.28,1.76,75.87,75.87,0,0,1-8.52.35,64.37,64.37,0,0,1-34.37-10.35A51.5,51.5,0,0,1,8,91.37,55,55,0,0,1,3.52,75.79a58.65,58.65,0,0,1-.49-10A60,60,0,0,1,9.61,40.26a59.21,59.21,0,0,1,24.7-25.41A68,68,0,0,1,62.54,6.4a67.63,67.63,0,0,1,8.89-.1c9.19.62,18,2.85,26.08,7.81,8.44,5.2,13.79,12.77,16.86,22.11a41.22,41.22,0,0,1,2,10.8c.07,1.56.22,3.12.22,4.7a49.29,49.29,0,0,1-2.95,16.17,50.32,50.32,0,0,1-9.09,16.5A23.43,23.43,0,0,1,93.79,92a15.16,15.16,0,0,1-5.67.67c-2.72-.17-4.76-2.08-5.47-5.1a18.13,18.13,0,0,1,.17-8.32C82.82,79.11,82.87,79,82.75,78.87Zm-1.42-4.64c.28,0,.35-.22.47-.34a33.67,33.67,0,0,1,12.61-8.17,11.59,11.59,0,0,1,3.86-1,1.91,1.91,0,0,1,2.08,1.34,2.23,2.23,0,0,1-.84,2.53,5.52,5.52,0,0,1-1.93.82,22,22,0,0,0-6.27,2.72,1.75,1.75,0,0,0-.71.74,43.83,43.83,0,0,0-2.7,8,8.5,8.5,0,0,0,.1,4.28A2.38,2.38,0,0,0,90.89,87a9.14,9.14,0,0,0,4.19-1.73A27.44,27.44,0,0,0,101.29,79c6.77-8.92,10.68-18.77,10.23-30.11,0-1.12-.17-2.23-.27-3.37a.37.37,0,0,0-.32.27,39.83,39.83,0,0,1-5.87,7.53A110.56,110.56,0,0,1,83.59,70.84a1.53,1.53,0,0,0-.57.47C82.47,72.28,81.93,73.24,81.33,74.23Zm6.59-11.56.52-.32A71.85,71.85,0,0,0,103.05,49a25.75,25.75,0,0,0,3.59-5.18,4.08,4.08,0,0,0,.5-1.71c0-.66-.22-.84-.89-.66a4.09,4.09,0,0,0-1.09.44,18.85,18.85,0,0,0-4,3.3,112.78,112.78,0,0,0-9.31,11.39A48,48,0,0,0,87.92,62.67Z" transform="translate(-2.99 -6.2)"/><path class="cls-1" d="M74.75,67.08A18.25,18.25,0,0,1,73,74.31,44.45,44.45,0,0,1,63.68,88.5a12.25,12.25,0,0,1-6.52,3.57c-4.4.74-6.49-2.36-6.61-5.48a18.12,18.12,0,0,1,1.76-8.22A36.62,36.62,0,0,1,63.18,64.7,12.28,12.28,0,0,1,69,62.05a7.45,7.45,0,0,1,2.82.12,4.08,4.08,0,0,1,3,4C74.77,66.46,74.75,66.78,74.75,67.08ZM56.4,84v.49c0,1.39.69,1.88,2,1.59a4.87,4.87,0,0,0,2-1A16.08,16.08,0,0,0,64.44,80a.61.61,0,0,0-.14-.85c-1.19-1.11-.85-1.46-.18-2.25a56.06,56.06,0,0,0,4.06-5,7.16,7.16,0,0,0,1.09-2.36c.1-.49.2-1-.22-1.38s-.92-.18-1.36,0a6.49,6.49,0,0,0-2.21,1.34,34.57,34.57,0,0,0-7.38,9A11.92,11.92,0,0,0,56.4,84Z" transform="translate(-2.99 -6.2)"/><path class="cls-1" d="M66.35,57.86c-2.1,0-3.24-1.33-2.67-3.26a8.55,8.55,0,0,1,5.47-6,3.3,3.3,0,0,1,2,.08,2.37,2.37,0,0,1,1.58,2.52c-.15,2.45-3,5.9-5.42,6.54A3.35,3.35,0,0,1,66.35,57.86Z" transform="translate(-2.99 -6.2)"/><path class="cls-1" d="M76.23,57.84c-2,0-3-1.31-2.6-3.37a6.39,6.39,0,0,1,.94-2.08,12.05,12.05,0,0,1,2.88-3A4.16,4.16,0,0,1,80,48.48c1.93,0,3.12,1.29,2.68,3.17a8.55,8.55,0,0,1-5.18,6,1.26,1.26,0,0,1-.54.13C76.68,57.84,76.46,57.84,76.23,57.84Z" transform="translate(-2.99 -6.2)"/><text class="cls-2" transform="translate(138.19 35.18)"><tspan class="cls-3">E</tspan><tspan x="12.7" y="0">öt</tspan><tspan class="cls-4" x="34.82" y="0">v</tspan><tspan class="cls-5" x="46.17" y="0">ös </tspan><tspan class="cls-6" x="73.94" y="0">L</tspan><tspan class="cls-7" x="85.07" y="0">o</tspan><tspan class="cls-8" x="98.14" y="0">r</tspan><tspan class="cls-9" x="106.9" y="0">á</tspan><tspan x="119.38" y="0">nd </tspan><tspan class="cls-10" x="151.85" y="0">T</tspan><tspan x="163.3" y="0">ud</tspan><tspan class="cls-9" x="191.29" y="0">o</tspan><tspan x="204.36" y="0">m</tspan><tspan class="cls-9" x="226.06" y="0">á</tspan><tspan class="cls-11" x="238.54" y="0">n</tspan><tspan class="cls-4" x="252.12" y="0">y</tspan><tspan class="cls-12" x="263.52" y="0">e</tspan><tspan class="cls-13" x="275.82" y="0">g</tspan><tspan class="cls-4" x="289.19" y="0">y</tspan><tspan x="300.59" y="0">e</tspan><tspan class="cls-6" x="313.15" y="0">t</tspan><tspan x="321.69" y="0">em</tspan></text><text class="cls-2" transform="translate(138.19 67.91)"><tspan class="cls-9">I</tspan><tspan class="cls-8" x="7.32" y="0">n</tspan><tspan class="cls-14" x="21.13" y="0">f</tspan><tspan class="cls-9" x="29.23" y="0">o</tspan><tspan x="42.3" y="0">rmati</tspan><tspan class="cls-15" x="101.3" y="0">k</tspan><tspan x="113.57" y="0">ai </tspan><tspan class="cls-16" x="137.34" y="0">K</tspan><tspan class="cls-9" x="152.28" y="0">a</tspan><tspan x="164.76" y="0">r</tspan></text><text class="cls-2" transform="translate(138.19 101.68)"><tspan class="cls-15">H</tspan><tspan x="18.13" y="0">all</tspan><tspan class="cls-4" x="44.55" y="0">g</tspan><tspan x="57.49" y="0">a</tspan><tspan class="cls-6" x="70.18" y="0">t</tspan><tspan x="78.72" y="0">ói </tspan><tspan class="cls-17" x="103.09" y="0">Ö</tspan><tspan x="120.29" y="0">n</tspan><tspan class="cls-18" x="134.37" y="0">k</tspan><tspan class="cls-9" x="146.69" y="0">o</tspan><tspan x="159.76" y="0">rm</tspan><tspan class="cls-9" x="190.48" y="0">á</tspan><tspan class="cls-11" x="202.96" y="0">n</tspan><tspan x="216.55" y="0">yzat</tspan></text></svg>